<?xml version="1.0" encoding="UTF-8"?>
<svg id="Layer_2" data-name="Layer 2" xmlns="http://www.w3.org/2000/svg" viewBox="0 0 684.59 429.81">
  <defs>
    <style>
      .cls-1 {
        fill: #3a3a3a;
      }

      .cls-2 {
        fill: none;
        stroke: #3a3a3a;
        stroke-linejoin: round;
        stroke-width: 23px;
      }
    </style>
  </defs>
  <g id="Layer_1-2" data-name="Layer 1">
    <g>
      <path class="cls-1" d="M92.76,192.28c19.14,92.63,61.59,155.99,175.47,148.75l-.15-19.95c-68.68,3.98-127.76-22.69-150.57-128.8h39.27c3.47,75.84,35.89,95.22,111.37,96.24v-23.76c-62.06-1.62-84.33-9.68-87.73-72.48h-.06v-23.57H42.55c0,8.11.03,16.21,2.27,23.57h47.95Z"/>
      <path class="cls-1" d="M600.98,88.19V0h-40.26v88.19h-83.88v40.26h82.97v.52c0,143.03-115.95,258.98-258.98,258.98-129.71,0-237.15-95.36-256.04-219.8h.02c-2.24-7.36-2.27-15.46-2.27-23.57h-.23c-.31-5.16-.47-10.37-.47-15.61v-.52h351.5v-40.26H2.75C.96,101.36.02,114.8,0,128.45v.52c0,5.24.13,10.44.4,15.61.4,7.94,1.12,15.8,2.13,23.57,19.2,147.64,145.43,261.66,298.3,261.66,110.86,0,207.71-59.97,259.89-149.24,22.82-39.02,37.09-83.63,40.26-131.29.45-6.71.68-13.48.68-20.31v-.52h82.93v-40.26h-83.61Z"/>
      <polygon class="cls-1" points="232.49 169.1 232.49 216.83 268.46 216.83 268.46 252.79 316.18 252.79 316.18 169.1 232.49 169.1"/>
      <path class="cls-2" d="M359.63,264.75c0,13.49,8.33,56.96,82.16,56.32,0,0-23.44-31.63-23.23-49.77"/>
      <rect class="cls-1" x="268.16" y="264.76" width="101.3" height="23.78"/>
    </g>
  </g>
</svg>